<svg width="15" height="15" viewBox="0 0 15 15" fill="none" xmlns="http://www.w3.org/2000/svg">
<path d="M14.8 6.36008L13.125 5.86008C13.0092 5.45573 12.8499 5.06512 12.65 4.69508L13.47 3.16008C13.5008 3.10214 13.512 3.03582 13.5021 2.97097C13.4922 2.90612 13.4617 2.84619 13.415 2.80008L12.22 1.60008C12.1739 1.55341 12.114 1.52286 12.0491 1.51295C11.9843 1.50304 11.9179 1.51431 11.86 1.54508L10.335 2.36008C9.96131 2.15041 9.56557 1.98272 9.155 1.86008L8.655 0.205077C8.63385 0.144085 8.59389 0.091376 8.54088 0.0545375C8.48787 0.0176989 8.42454 -0.00136962 8.36 7.65844e-05H6.67C6.60507 0.000378871 6.54193 0.0213939 6.48977 0.0600632C6.43762 0.0987325 6.39916 0.153038 6.38 0.215077L5.88 1.86508C5.46601 1.98707 5.06688 2.15477 4.69 2.36508L3.19 1.55508C3.13206 1.52431 3.06574 1.51304 3.00089 1.52295C2.93604 1.53286 2.87611 1.56341 2.83 1.61008L1.615 2.79508C1.56833 2.84119 1.53778 2.90112 1.52787 2.96597C1.51796 3.03082 1.52923 3.09714 1.56 3.15508L2.37 4.65508C2.16003 5.03037 1.99234 5.4278 1.87 5.84008L0.215 6.34008C0.152962 6.35924 0.0986559 6.39769 0.0599866 6.44985C0.0213173 6.50201 0.000302287 6.56515 0 6.63008V8.32008C0.000302287 8.385 0.0213173 8.44814 0.0599866 8.5003C0.0986559 8.55246 0.152962 8.59092 0.215 8.61008L1.88 9.11008C2.00367 9.51548 2.17134 9.90614 2.38 10.2751L1.56 11.8451C1.52923 11.903 1.51796 11.9693 1.52787 12.0342C1.53778 12.099 1.56833 12.159 1.615 12.2051L2.81 13.4001C2.85611 13.4467 2.91604 13.4773 2.98089 13.4872C3.04574 13.4971 3.11206 13.4858 3.17 13.4551L4.715 12.6301C5.08048 12.8273 5.46601 12.9849 5.865 13.1001L6.365 14.7851C6.38416 14.8471 6.42262 14.9014 6.47477 14.9401C6.52693 14.9788 6.59007 14.9998 6.655 15.0001H8.345C8.40993 14.9998 8.47307 14.9788 8.52523 14.9401C8.57738 14.9014 8.61584 14.8471 8.635 14.7851L9.135 13.0951C9.53058 12.9793 9.91273 12.8217 10.275 12.6251L11.83 13.4551C11.8879 13.4858 11.9543 13.4971 12.0191 13.4872C12.084 13.4773 12.1439 13.4467 12.19 13.4001L13.385 12.2051C13.4317 12.159 13.4622 12.099 13.4721 12.0342C13.482 11.9693 13.4708 11.903 13.44 11.8451L12.61 10.2951C12.8087 9.93142 12.9679 9.54758 13.085 9.15008L14.77 8.65008C14.832 8.63092 14.8863 8.59246 14.925 8.5403C14.9637 8.48814 14.9847 8.425 14.985 8.36008V6.65508C14.9879 6.5929 14.9718 6.53131 14.9387 6.47858C14.9057 6.42585 14.8573 6.3845 14.8 6.36008V6.36008ZM7.515 10.2501C6.9711 10.2501 6.43942 10.0888 5.98718 9.78662C5.53495 9.48444 5.18247 9.05495 4.97433 8.55246C4.76619 8.04996 4.71173 7.49703 4.81784 6.96358C4.92395 6.43013 5.18586 5.94013 5.57046 5.55553C5.95505 5.17094 6.44505 4.90903 6.9785 4.80292C7.51195 4.69681 8.06488 4.75127 8.56738 4.95941C9.06988 5.16755 9.49937 5.52002 9.80154 5.97226C10.1037 6.42449 10.265 6.95618 10.265 7.50008C10.265 8.22942 9.97527 8.9289 9.45954 9.44462C8.94382 9.96035 8.24435 10.2501 7.515 10.2501V10.2501Z" fill="#DCDCDC"/>
</svg>
