<svg width="10" height="10" viewBox="0 0 10 10" fill="none" xmlns="http://www.w3.org/2000/svg">
<path fill-rule="evenodd" clip-rule="evenodd" d="M0.243744 0.254151C0.39986 0.0980824 0.61157 0.0104077 0.832318 0.0104077C1.05307 0.0104077 1.26478 0.0980824 1.42089 0.254151L4.9948 3.82805L8.5687 0.254151C8.6455 0.174639 8.73736 0.111218 8.83892 0.0675877C8.94049 0.0239574 9.04973 0.000991979 9.16027 3.14326e-05C9.27081 -0.000929114 9.38043 0.0201343 9.48274 0.0619929C9.58505 0.103851 9.678 0.165667 9.75617 0.243832C9.83433 0.321997 9.89615 0.414947 9.93801 0.517258C9.97987 0.619569 10.0009 0.729191 9.99997 0.839729C9.99901 0.950268 9.97604 1.05951 9.93241 1.16108C9.88878 1.26264 9.82536 1.3545 9.74585 1.4313L6.17194 5.0052L9.74585 8.57911C9.89749 8.73612 9.98141 8.94641 9.97951 9.16468C9.97761 9.38296 9.89006 9.59176 9.73571 9.74611C9.58136 9.90047 9.37256 9.98802 9.15428 9.98991C8.936 9.99181 8.72571 9.9079 8.5687 9.75625L4.9948 6.18235L1.42089 9.75625C1.26388 9.9079 1.05359 9.99181 0.835314 9.98991C0.617036 9.98802 0.408236 9.90047 0.253884 9.74611C0.099533 9.59176 0.0119801 9.38296 0.0100833 9.16468C0.00818653 8.94641 0.0920978 8.73612 0.243744 8.57911L3.81765 5.0052L0.243744 1.4313C0.0876747 1.27518 0 1.06347 0 0.842725C0 0.621977 0.0876747 0.410267 0.243744 0.254151Z" fill="#FF3838"/>
</svg>
