<svg width="14" height="19" viewBox="0 0 14 19" fill="none" xmlns="http://www.w3.org/2000/svg">
<path d="M7 0.72168C5.14416 0.723869 3.36495 1.46207 2.05268 2.77435C0.740397 4.08663 0.00219684 5.86583 7.44728e-06 7.72167C-0.0022153 9.23827 0.493176 10.7137 1.41019 11.9217C1.41019 11.9217 1.6011 12.173 1.63228 12.2093L7 18.5398L12.3703 12.2061C12.3983 12.1724 12.5898 11.9217 12.5898 11.9217L12.5904 11.9198C13.507 10.7123 14.0022 9.23757 14 7.72167C13.9978 5.86583 13.2596 4.08663 11.9473 2.77435C10.635 1.46207 8.85584 0.723869 7 0.72168ZM7.63636 10.9035H6.36364V9.63076H7.63636V10.9035ZM7.63636 8.35804H6.36364V7.08531H7.63636V8.35804ZM10.1818 10.9035H8.90909V5.81258H5.09091V10.9035H3.81819V5.81258C3.81852 5.47514 3.95272 5.15161 4.19133 4.913C4.42994 4.67439 4.75347 4.54019 5.09091 4.53986H8.90909C9.24653 4.54019 9.57006 4.67439 9.80867 4.913C10.0473 5.15161 10.1815 5.47514 10.1818 5.81258V10.9035Z" fill="#F88923"/>
</svg>
