<svg width="16" height="16" viewBox="0 0 16 16" fill="none" xmlns="http://www.w3.org/2000/svg">
<path d="M10.2954 1.54524e-06C10.2332 7.05641e-05 10.1732 0.00807672 10.1123 0.0130116L8.3264 2.96081C10.4447 3.14443 11.4936 4.11705 11.8743 5.07486L11.2971 5.30421C11.0311 4.63507 10.3667 3.89539 8.80149 3.64175C9.46276 4.11498 9.959 4.66247 10.2139 5.32926L9.63365 5.55105C9.3623 4.84116 8.69741 4.23631 7.71026 3.69306C7.36303 3.83524 5.58414 4.56177 4.96832 4.77035C3.68646 5.20444 2.98827 6.08488 1.65603 7.63118L1.65151 7.63635L1.64685 7.64136C1.43075 7.87092 1.33992 8.07801 1.31908 8.22906C1.29824 8.38003 1.33578 8.47397 1.40218 8.54413C1.53497 8.68444 1.89145 8.77327 2.41917 8.41534L2.42176 8.41358L5.01138 6.73048L5.38595 7.224L3.61027 8.78763L0.362996 11.7886C-0.0486672 12.1691 -0.042007 12.5389 0.0541364 12.6666C0.102243 12.7304 0.174885 12.7794 0.350331 12.7715C0.525777 12.7636 0.79709 12.6785 1.13649 12.446C2.16256 11.7433 3.11854 11.041 3.95764 10.1939L3.95581 10.1862L3.96847 10.183C3.97441 10.1771 3.98045 10.1712 3.98635 10.1653L3.99843 10.1754C4.11616 10.1444 4.2323 10.1077 4.34642 10.0654C4.55393 9.98786 4.77579 9.84651 4.80212 9.81079C4.8133 9.79561 4.87714 9.57982 4.88805 9.39137C4.89895 9.20291 4.88825 9.04268 4.88825 9.04268L5.50794 9.00017C5.50794 9.00017 5.52164 9.1948 5.50822 9.42722C5.49476 9.65961 5.48561 9.93058 5.30195 10.1795C5.10318 10.449 4.81247 10.5544 4.56373 10.6473C4.49168 10.674 4.41888 10.6987 4.34542 10.7213C3.50436 11.8492 2.43591 12.7082 1.44801 13.6031C1.10623 13.9127 0.964772 14.179 0.933299 14.3426C0.901792 14.5063 0.937923 14.5637 1.02254 14.6249C1.19171 14.7473 1.7529 14.7671 2.33383 14.2319C3.47313 13.1822 4.58461 12.1394 5.43409 10.8941L5.46211 10.9108C5.51194 10.8892 5.60736 10.8468 5.73691 10.7761C5.90842 10.6824 6.09453 10.5339 6.11941 10.4963C6.14305 10.4607 6.20683 10.2347 6.22598 10.0431C6.24513 9.85152 6.24365 9.69094 6.24365 9.69094L6.86475 9.68428C6.86475 9.68428 6.86696 9.87557 6.84404 10.105C6.82109 10.3343 6.7969 10.5986 6.63712 10.8396C6.4761 11.0825 6.23933 11.2096 6.03449 11.3213C5.97202 11.3554 5.9145 11.3844 5.86114 11.4103C5.29267 12.4425 4.47549 13.337 3.60526 14.273C3.41926 14.4731 3.38506 14.6252 3.39607 14.7324C3.40711 14.8397 3.46653 14.9315 3.58318 15.0039C3.81646 15.1489 4.26077 15.1718 4.66791 14.7516C5.13745 14.267 5.56274 13.7605 5.93317 13.2229C6.25403 12.6376 6.58022 12.0466 6.89122 11.4562L6.91137 11.4656C6.94167 11.4557 7.0463 11.4209 7.18286 11.3605C7.34081 11.2907 7.51422 11.1702 7.52978 11.1502C7.54486 11.1308 7.61847 10.9341 7.64701 10.7648C7.66434 10.6613 7.67655 10.557 7.68359 10.4523L8.3039 10.4864C8.3039 10.4864 8.29444 10.6607 8.25955 10.868C8.22463 11.0753 8.18894 11.3143 8.02026 11.5313C7.8511 11.749 7.6272 11.8432 7.43408 11.9286C7.40444 11.9417 7.37746 11.9525 7.34954 11.9639C7.10324 12.523 6.80518 13.0478 6.4653 13.5446C6.34203 13.7696 6.21601 13.9977 6.09785 14.2176C5.98907 14.42 5.98231 14.5664 6.00684 14.665C6.03141 14.7637 6.08684 14.8278 6.17007 14.87C6.33658 14.9545 6.63188 14.9452 6.89926 14.5728C8.88148 11.8123 11.2654 9.04175 12.3209 5.4283C12.3983 5.1633 12.5673 5.03279 12.7693 4.84527C12.9714 4.65778 13.2174 4.45645 13.4585 4.25667C13.6997 4.05686 13.9361 3.85843 14.1083 3.69106C14.2226 3.57994 14.2953 3.47113 14.3312 3.42144C14.2468 3.09267 14.1091 2.76348 13.9297 2.44648C13.5471 2.69215 13.1313 2.91809 12.798 3.10068C13.0111 2.58642 13.1405 2.04431 13.2259 1.4875C13.0469 1.29371 12.8538 1.11342 12.6482 0.94808C11.9153 0.35959 11.0596 -0.000861191 10.2954 1.54524e-06ZM4.55379 0.137832C4.52637 0.137417 4.49894 0.137532 4.47152 0.138177C4.02448 0.148599 3.47751 0.317972 2.95038 0.603123C2.66802 0.755862 2.39377 0.942351 2.14082 1.15027C2.22426 1.81416 2.35919 2.4609 2.61101 3.06865C2.18775 2.83675 1.63167 2.53486 1.17935 2.21144C0.99973 2.49434 0.87553 2.7817 0.827252 3.05523C0.847957 3.15109 0.949242 3.35525 1.13594 3.58198C1.33948 3.82914 1.62114 4.10531 1.91061 4.3728C2.20004 4.64031 2.49692 4.89976 2.73928 5.12838C2.80823 5.1934 2.87221 5.25168 2.9316 5.30814C3.47792 4.80344 4.04132 4.42843 4.76909 4.18199C5.25257 4.01825 6.70977 3.42869 7.26067 3.20472L5.45997 0.557605C5.25526 0.271142 4.9582 0.144044 4.55379 0.137832ZM12.8308 5.88673C12.6727 6.39053 12.4908 6.87753 12.2895 7.34982L13.2997 7.91012L13.3023 7.91167C13.8538 8.23185 14.2033 8.11828 14.3259 7.96903C14.3872 7.89438 14.4181 7.79814 14.3868 7.64895C14.3554 7.49973 14.2504 7.29947 14.0188 7.08558L14.0087 7.07623L13.9995 7.06605C13.5751 6.59831 13.1896 6.21125 12.8308 5.88673ZM11.9056 8.18713C11.4853 9.04596 11.0065 9.85704 10.499 10.6337C11.4286 11.7989 12.5974 12.7511 13.794 13.708C14.411 14.2013 14.9693 14.1424 15.1296 14.0085C15.2096 13.9415 15.2417 13.8817 15.1989 13.7206C15.156 13.5596 14.9963 13.3038 14.6337 13.0188C13.5372 12.157 12.3552 11.3408 11.4156 10.1967L11.8614 9.76683C12.7653 10.5656 13.7788 11.2064 14.8636 11.8429C15.2184 12.0511 15.495 12.117 15.6706 12.1126C15.8461 12.1083 15.9152 12.0543 15.9587 11.9873C16.0457 11.8532 16.0265 11.4838 15.5893 11.1331L12.1403 8.3663L11.9056 8.18713ZM10.1191 11.2023C9.92913 11.48 9.73604 11.7556 9.53982 12.0289C9.73697 12.3379 9.93564 12.6463 10.1328 12.9529C10.54 13.4633 10.9996 13.939 11.5019 14.3896C11.9374 14.7803 12.379 14.7263 12.6016 14.5654C12.713 14.485 12.7659 14.3893 12.7693 14.2816C12.7728 14.1738 12.7281 14.0245 12.5285 13.8379C11.6148 12.9834 10.7545 12.1651 10.1191 11.2023ZM9.11632 12.6114C8.90954 12.8932 8.70181 13.1743 8.49315 13.4548C8.75355 13.7596 9.01141 14.0634 9.2636 14.3672C9.55631 14.72 9.85151 14.7085 10.0117 14.6126C10.0918 14.5647 10.1426 14.497 10.1602 14.3968C10.1778 14.2967 10.1608 14.1512 10.0382 13.9568C9.90486 13.7455 9.76306 13.5266 9.62426 13.3107C9.4452 13.0848 9.27573 12.8515 9.11632 12.6114Z" fill="#C4C4C4"/>
</svg>
