<svg width="14" height="16" viewBox="0 0 14 16" fill="none" xmlns="http://www.w3.org/2000/svg">
<path d="M5.6001 0.792286C5.6912 0.902992 5.74702 1.03848 5.76033 1.18123C5.77364 1.32399 5.74383 1.46746 5.67476 1.5931C5.13516 2.58383 4.85336 3.69434 4.85528 4.82249C4.85528 8.57549 7.9148 11.6145 11.6855 11.6145C12.1774 11.6145 12.6562 11.5631 13.1164 11.4651C13.2574 11.4346 13.4043 11.4463 13.5388 11.4987C13.6732 11.5512 13.7893 11.6421 13.8724 11.7601C13.9601 11.8828 14.0048 12.031 13.9996 12.1817C13.9944 12.3325 13.9395 12.4772 13.8434 12.5936C13.1114 13.4928 12.1879 14.2173 11.1403 14.7143C10.0927 15.2113 8.94738 15.4682 7.78787 15.4664C3.48513 15.4664 0 11.9999 0 7.72894C0 4.51448 1.9731 1.75737 4.78248 0.588815C4.92243 0.529671 5.07778 0.517532 5.22522 0.554221C5.37265 0.590911 5.5042 0.674449 5.6001 0.792286ZM4.53421 1.75644C3.45396 2.33589 2.55088 3.19719 1.92096 4.24882C1.29103 5.30044 0.957804 6.50309 0.956683 7.72894C0.956683 11.481 4.01714 14.52 7.78787 14.52C8.69083 14.5216 9.58514 14.344 10.419 13.9976C11.2529 13.6513 12.0098 13.1429 12.646 12.5021C12.3314 12.5413 12.0113 12.5609 11.6855 12.5609C7.38279 12.5609 3.8986 9.09443 3.8986 4.82342C3.8986 3.7342 4.12447 2.69725 4.53421 1.75644Z" fill="#B4B4B4"/>
</svg>
