<svg width="15" height="20" viewBox="0 0 15 20" fill="none" xmlns="http://www.w3.org/2000/svg">
<path d="M13.075 13.5156V13.5363L13.0896 13.551L14.95 15.4113V16.2781H0.05V15.4113L1.91036 13.551L1.925 13.5363V13.5156V8.82812C1.925 5.95816 3.45165 3.58271 6.10532 2.95177L6.14375 2.94263V2.90312V2.26562C6.14375 1.51511 6.74949 0.909375 7.5 0.909375C8.25051 0.909375 8.85625 1.51511 8.85625 2.26562V2.90312V2.94266L8.89472 2.95178C11.5576 3.58271 13.075 5.96739 13.075 8.82812V13.5156ZM11.25 14.5031H11.3V14.4531V8.82812C11.3 7.65582 10.9431 6.58911 10.2886 5.8146C9.63337 5.03929 8.68189 4.55938 7.5 4.55938C6.31811 4.55938 5.36663 5.03929 4.71142 5.8146C4.05689 6.58911 3.7 7.65582 3.7 8.82812V14.4531V14.5031H3.75H11.25ZM9.32432 17.3156C9.29759 18.2964 8.48692 19.0906 7.5 19.0906C6.51308 19.0906 5.70241 18.2964 5.67568 17.3156H9.32432Z" fill="#B4B4B4" stroke="white" stroke-width="0.1"/>
</svg>
