<svg width="19" height="20" viewBox="0 0 19 20" fill="none" xmlns="http://www.w3.org/2000/svg">
<path d="M6.5312 18.4016V14.3047L3.47339 16.5609C4.33433 17.3625 5.37339 17.9859 6.5312 18.4016Z" fill="#2A5F9E"/>
<path d="M12.4688 18.4015C13.6266 17.9858 14.6656 17.3624 15.5266 16.5608L12.4688 14.2749V18.4015Z" fill="#2A5F9E"/>
<path d="M1.09839 12.9688C1.18745 13.2656 1.3062 13.5328 1.45464 13.8297L2.61245 12.9688H1.09839Z" fill="#2A5F9E"/>
<path d="M16.3875 12.9688L17.5453 13.8297C17.664 13.5625 17.7828 13.2656 17.9015 12.9688H16.3875Z" fill="#2A5F9E"/>
<path d="M6.97654 11.7812H0.771851C0.860913 12.1969 0.979663 12.5828 1.09841 12.9688H2.61248L1.45466 13.8297C1.69216 14.3344 1.95935 14.7797 2.28591 15.225L5.34373 12.9688H6.53123V13.5625L3.05779 16.1156L3.47341 16.5313L6.53123 14.3047V18.4016C6.91716 18.55 7.3031 18.6391 7.71873 18.7281V11.7812H6.97654Z" fill="white"/>
<path d="M18.2281 11.7812H11.2812V18.7281C11.6969 18.6391 12.0828 18.5203 12.4688 18.4016V14.3047L15.5266 16.5313C15.9422 16.1453 16.2984 15.7297 16.6547 15.2844L13.4781 12.9688H15.4969L17.3078 14.3047C17.3969 14.1563 17.4859 13.9781 17.5453 13.8297L16.3875 12.9688H17.9016C18.0203 12.5828 18.1391 12.1969 18.2281 11.7812Z" fill="white"/>
<path d="M2.28589 15.2251C2.52339 15.5517 2.76089 15.8485 3.02808 16.1454L6.5312 13.5923V12.9985H5.3437L2.28589 15.2251Z" fill="#ED4C5C"/>
<path d="M13.5078 12.9688L16.6844 15.2844C16.8031 15.1359 16.8922 14.9875 17.0109 14.8391C17.0406 14.8094 17.0406 14.7797 17.0703 14.7797C17.1594 14.6312 17.2781 14.4531 17.3672 14.3047L15.4969 12.9688H13.5078Z" fill="#ED4C5C"/>
<path d="M12.4688 1.59839V5.69526L15.5266 3.43901C14.6656 2.63745 13.6266 2.01401 12.4688 1.59839Z" fill="#2A5F9E"/>
<path d="M6.5312 1.59839C5.37339 2.01401 4.33433 2.63745 3.47339 3.43901L6.5312 5.72495V1.59839Z" fill="#2A5F9E"/>
<path d="M17.9015 7.0311C17.8125 6.73423 17.6937 6.46704 17.5453 6.17017L16.3875 7.0311H17.9015Z" fill="#2A5F9E"/>
<path d="M2.61245 7.0311L1.45464 6.17017C1.33589 6.46704 1.21714 6.73423 1.09839 7.0311H2.61245Z" fill="#2A5F9E"/>
<path d="M12.0234 8.21885H18.1984C18.1094 7.80322 17.9906 7.41728 17.8719 7.03135H16.3578L17.5156 6.17041C17.2781 5.66572 17.0109 5.22041 16.6844 4.7751L13.6563 7.03135H12.4688V6.4376L15.9422 3.88447L15.5266 3.46885L12.4688 5.69541V1.59854C12.0828 1.4501 11.6969 1.36104 11.2812 1.27197V8.21885H12.0234Z" fill="white"/>
<path d="M0.771851 8.21885H7.71873V1.27197C7.3031 1.36104 6.91716 1.47979 6.53123 1.59854V5.69541L3.47341 3.46885C3.05779 3.85479 2.70154 4.27041 2.34529 4.71572L5.52185 7.03135H3.5031L1.69216 5.69541C1.6031 5.84385 1.51404 6.02197 1.45466 6.17041L2.61248 7.03135H1.09841C0.979663 7.41728 0.860913 7.80322 0.771851 8.21885Z" fill="white"/>
<path d="M16.7141 4.77505C16.4766 4.44849 16.2391 4.15161 15.9719 3.85474L12.4688 6.40786V7.00161H13.6562L16.7141 4.77505Z" fill="#ED4C5C"/>
<path d="M5.49216 7.0312L2.34529 4.71558C2.22654 4.86401 2.13748 5.01245 2.01873 5.16089C1.98904 5.19058 1.98904 5.22026 1.95935 5.22026C1.87029 5.3687 1.75154 5.54683 1.66248 5.69526L3.47341 7.0312H5.49216Z" fill="#ED4C5C"/>
<path d="M18.2281 8.21875H11.2812V1.27187C10.7172 1.15312 10.1234 1.09375 9.5 1.09375C8.87656 1.09375 8.28281 1.15312 7.71875 1.27187V8.21875H0.771875C0.653125 8.78281 0.59375 9.37656 0.59375 10C0.59375 10.6234 0.653125 11.2172 0.771875 11.7812H7.71875V18.7281C8.28281 18.8469 8.87656 18.9062 9.5 18.9062C10.1234 18.9062 10.7172 18.8469 11.2812 18.7281V11.7812H18.2281C18.3469 11.2172 18.4062 10.6234 18.4062 10C18.4062 9.37656 18.3469 8.78281 18.2281 8.21875Z" fill="#ED4C5C"/>
</svg>
